<svg xmlns="http://www.w3.org/2000/svg" focusable="false" viewBox="0 0 18 22"><title>Mijn RET</title><g stroke="none" stroke-width="1" fill="currentColor" fill-rule="evenodd"><path d="M18,22 C18,18.1340068 18,13 9,13 C5.51091054e-16,13 2.36723813e-16,18.1340068 0,22 C3.85600742e-24,21.9999999 18,21.9999999 18,22 L18,22 Z M16,20 C16,16.1340068 12.8659932,15 9,15 C5.13400675,15 2,16.1340068 2,20 C2,19.9999999 16,19.9999999 16,20 L16,20 Z M9,12 C12.3137085,12 15,9.3137085 15,6 C15,2.6862915 12.3137085,0 9,0 C5.6862915,0 3,2.6862915 3,6 C3,9.3137085 5.6862915,12 9,12 L9,12 Z M9,10 C11.209139,10 13,8.209139 13,6 C13,3.790861 11.209139,2 9,2 C6.790861,2 5,3.790861 5,6 C5,8.209139 6.790861,10 9,10 L9,10 Z" fill="currentColor"/></g></svg>