<svg xmlns="http://www.w3.org/2000/svg" focusable="false" viewBox="0 0 14 13"><title/><g stroke="none" stroke-width="1" fill="currentColor" fill-rule="evenodd"><path d="M6.92730427,13 L1.37304625,7.44667191 C0.500304017,6.63577023 0,5.48962767 0,4.29722093 C0,1.92798383 1.92798383,0 4.29745341,0 C5.26551379,0 6.17894059,0.315247326 6.92730427,0.897152974 C7.67566794,0.315247326 8.58909475,0 9.55715512,0 C11.9266247,0 13.8546085,1.92798383 13.8546085,4.29722093 C13.8546085,5.48869774 13.3543045,6.63577023 12.4806324,7.44667191 L6.92730427,13 Z M4.29745341,1.85265925 C2.94974785,1.85265925 1.85265925,2.94974785 1.85265925,4.29722093 C1.85265925,4.97932687 2.14047355,5.63492972 2.64263743,6.09733896 L2.67076791,6.12360957 L6.92730427,10.3808434 L11.1973247,6.11082299 L11.2119711,6.09826889 C11.714135,5.63585965 12.0019493,4.9802568 12.0019493,4.29815086 C12.0019493,2.94974785 10.9048607,1.85358918 9.55715512,1.85358918 C8.88341858,1.85358918 8.25594621,2.12140992 7.79097965,2.60822991 C7.74192568,2.65914375 7.69473157,2.71354483 7.64916485,2.76887585 L6.92730427,3.66974856 L6.20451375,2.76887585 C6.15987696,2.71354483 6.11268286,2.65914375 6.06362889,2.60822991 C5.59773239,2.12047999 4.97118996,1.85265925 4.29745341,1.85265925 L4.29745341,1.85265925 Z" fill="currentColor"/></g></svg>